<?xml version="1.0" encoding="UTF-8"?>
<svg width="512" height="512" viewBox="0 0 512 512" fill="none" xmlns="http://www.w3.org/2000/svg">
    <!-- Background -->
    <rect width="512" height="512" fill="#2196f3"/>
    
    <!-- Dollar sign (scaled down and centered for safe area) -->
    <g transform="scale(0.8) translate(64, 64)">
        <path d="M296 400H264V368C230.7 364.4 200.8 349.9 180 324.5L204.5 293.5C222.5 315.5 242.3 326.5 264 328V256C230.7 247.5 206.2 238 190.5 227.5C174.8 216.7 167 201.3 167 181.5C167 160.5 174.8 143.3 190.5 130C206.2 116.7 232.7 109.2 264 107.5V76H296V107.5C324.7 109.5 348.8 119.8 368.5 138.5L345.5 170.5C330.5 156.2 314.3 147.7 296 145V212C329.3 220.5 353.8 230 369.5 240.5C385.2 251.3 393 266.7 393 286.5C393 307.5 385.2 324.7 369.5 338C353.8 351.3 327.3 358.8 296 360.5V400ZM264 145C250.7 146.3 240.2 149.8 232.5 155.5C224.8 161.2 221 168.3 221 177C221 185.3 224.7 192 232 197C239.3 202 250 206.3 264 210V145ZM296 328C309.3 326.7 319.8 323.2 327.5 317.5C335.2 311.8 339 304.7 339 296C339 287.7 335.3 281 328 276C320.7 271 310 266.7 296 263V328Z" fill="white"/>
    </g>
</svg> 